<svg version="1" xmlns="http://www.w3.org/2000/svg" width="320" height="320" viewBox="0 0 240.000000 240.000000"><path d="M111.3 13.4C96 21.6 89.1 32.2 87.5 50c-.2 1.9-.4 3.7-.5 4-.5 1.1 0 14.1.6 16.7.3 1.5.7 3.5.8 4.3 1.6 8.2 10.9 22.4 17 25.7 1.9 1 1.9 1.2-.6 4.2l-2.6 3-1.7-2.7c-5.4-8.7-20.8-17.3-31.7-17.6-1.6-.1-2.8-.3-2.8-.7 0-1.1-19.6.4-24.8 2-1.8.5-3.5 1-3.7 1-1.2.1-9.6 4.1-11.1 5.3C19.1 101.1 10 114.8 10 120c0 3 6.3 14.7 10.3 19.1 3 3.3 13.9 11.1 15.2 10.8.3 0 1.8.2 3.3.5 1.5.4 3.7.9 4.9 1.1 1.3.3 3.3.7 4.5 1 3 .7 18.5.7 21.8 0 1.4-.3 3.4-.7 4.5-.9 3.6-.7 12.8-4.7 15.9-6.8 3.6-2.5 10.2-9.2 10.8-11 .3-.8 1.2-.6 3.1.8 2.7 1.9 3.6 4.4 1.7 4.4-2.1 0-10.7 9.8-13.2 15.1-2.4 4.9-4.1 9.7-4.1 10.9 0 .3-.4 1.6-.9 3-1 2.6-1.2 19.9-.3 23.7.3 1.3.7 3.3 1 4.5.2 1.3.7 3.5 1.1 5 .3 1.5.4 2.9.3 3-.7.7 7.7 12.6 11 15.5 4.4 4 16.1 10.3 19.1 10.3s14.6-6.2 19.1-10.3c7.7-6.8 12.2-16.8 13.3-29.5.2-2.4.6-4.5.8-4.8.5-.4.2-7.9-.6-14.9-1.3-11.6-9.3-25.7-17.3-30.6l-3.3-2 3.1-2.7c3-2.5 3.2-2.5 4.2-.6 4.6 8.2 21.2 17.5 32 17.8 1.5.1 2.7.3 2.7.7 0 1.1 19.6-.4 24.8-2 1.8-.5 3.5-1 3.8-.9 2.1.1 12.1-6.1 15.8-9.8 4.8-4.9 11.6-16.8 11.6-20.4 0-3.5-6.7-15.3-11.6-20.3-5.1-5.3-11.5-8.8-19.4-10.7-9.7-2.4-22.8-2.8-31.5-1-6.1 1.2-16.7 5.7-17.3 7.2-.2.4-.8.8-1.3.8-1.2 0-9.5 8.3-10.1 10.1-.3 1-1.1.8-3.1-.7-2.6-1.9-3.6-4.4-1.7-4.4 1.2 0 9.1-7.8 11.3-11.3 1-1.5 1.5-2.7 1.2-2.7-.4 0 .1-.7.9-1.6.9-.8 1.4-2 1.1-2.5-.4-.5-.2-.9.3-.9s1.2-1 1.5-2.3c.3-1.2 1.1-4.2 1.7-6.7 1.1-4.4 1.5-19.1.6-24-.3-1.4-.8-4.1-1.1-6-.3-1.9-.9-4.2-1.2-5-.3-.8-.7-2.1-.9-2.8-.5-2.7-5.7-10.4-9.3-14-4.5-4.4-16.8-11.2-20.2-11.2-1.3 0-5.2 1.5-8.6 3.4zm15.8 13.8c3.4 2.4 6.7 5.2 7.3 6.3.6 1.1 1.4 2.2 1.7 2.5 3.6 3.3 5.9 25.6 3.5 34.7-3 11.1-8.5 18.5-16 21.7-3.6 1.5-3.9 1.5-8.4-.8-2.6-1.3-5.8-3.6-7.1-5.1-3.1-3.6-7-11.5-7.5-15.1-.2-1.6-.6-3.6-1-4.4-.7-1.7-.1-16.7.9-22 1-5.4 3.6-10.1 7.7-14.2 3.2-3.2 10-7.6 12-7.8.3 0 3.4 1.9 6.9 4.2zm-55.9 73.2c9.2 2.1 18.2 8.9 21.2 15.9 1.4 3.4 1.3 4-.5 8.1-2.9 6.6-11.8 13.2-20.6 15.2-3.8.9-20.6 1.3-21.8.6-.5-.3-1.6-.7-2.5-.8-8-1.3-10.6-2.3-14.7-6-1.7-1.6-4.5-5.1-6.1-7.7-3.5-5.6-3.3-7.3 2.2-14.7 3.7-5.1 11.8-10 17-10.3 1.9-.2 3.7-.5 4.1-.8.7-.8 18.1-.3 21.7.5zm123.3.1c4.8 1 9.5 2.8 9.5 3.7 0 .4.6.8 1.4.8 1.7 0 6.3 5.4 9.4 10.9l2.2 3.8-2.6 4.9c-4.2 8-11.1 13.3-19.4 14.9-4.6.9-22.6 1-26.5.1-4.1-1-12.5-5.3-15.3-7.9-1.3-1.2-3.5-4.3-4.8-6.9L146 120l2-4.4c2.1-4.3 5.3-7.8 10.4-11.1 1.4-1 2.6-1.3 2.6-.9 0 .5.4.3.8-.4.5-.7 1.8-1.5 3-1.7 1.2-.3 3.2-.7 4.3-1 1.2-.2 2.4-.6 2.6-.8.6-.6 19.3 0 22.8.8zm-68.7 13.6c2.3 2.3 4.2 4.9 4.2 5.9 0 2-8.2 10-10.3 10-.7 0-3.2-2-5.6-4.4-3.2-3.3-4.1-4.9-3.7-6.4.8-2.4 8.1-9.2 9.9-9.2.7 0 3.1 1.9 5.5 4.1zm-1.4 34c2.4 1.1 5.6 3.4 7.1 5 3.3 3.8 7.4 11.7 7.9 15.5.2 1.6.6 3.6 1 4.5.7 1.6.2 14.1-.9 21.3-1.2 8.6-7.1 16.1-16.1 20.7l-3.8 1.9-4.5-2.7c-7.5-4.3-12.7-10.7-13.7-16.8-.1-1.1-.7-3.4-1.1-5-1-3.2-1-16.8-.1-22.5 1.8-10.6 10.3-21 19.6-23.9.1-.1 2.2.8 4.6 2z"/></svg>